<svg width="286" height="80" viewBox="0 0 286 80" fill="none" xmlns="http://www.w3.org/2000/svg">
<path d="M101.193 33.715C102.028 34.4606 102.775 34.5483 103.698 33.6273C104.489 32.794 104.621 32.0484 103.786 31.0835C102.335 29.4609 98.7311 27.4872 94.1595 27.4872C86.1158 27.4872 80.0942 33.715 80.0942 42.0479C80.0942 50.4244 86.1598 56.6961 94.116 56.6961C99.0386 56.6961 102.819 54.4156 104.181 52.7927C104.885 51.9156 105.017 51.0386 104.137 50.2054C103.039 49.1527 102.116 49.7669 101.588 50.2493C100.27 51.3893 98.1596 53.2751 94.3355 53.2751C88.1819 53.2751 83.7863 48.5387 83.7863 42.0917C83.7863 35.6447 88.1379 30.9081 94.3795 30.9081C98.0276 30.9081 100.006 32.6624 101.193 33.715Z" fill="#1C565A"/>
<path d="M129.728 34.4605C128.629 34.4605 127.926 35.2061 127.926 36.3464V48.6264C127.926 50.6878 125.948 53.319 121.552 53.3629C118.036 53.3629 115.443 51.9156 115.443 47.0914V36.3464C115.443 35.2061 114.783 34.4605 113.685 34.4605C112.586 34.4605 111.926 35.2061 111.926 36.3464V47.6177C111.926 54.24 116.058 56.6961 120.805 56.6961C124.453 56.6961 126.871 54.8542 127.706 53.4069H127.926V54.5034C127.926 55.6434 128.629 56.3893 129.728 56.3893C130.827 56.3893 131.486 55.6434 131.486 54.5034V36.3464C131.486 35.2061 130.827 34.4605 129.728 34.4605Z" fill="#1C565A"/>
<path d="M151.534 34.592C150.963 34.4166 150.215 34.1534 149.204 34.1534C146.259 34.1534 144.149 36.1709 143.27 38.0568H143.095V36.3463C143.095 35.206 142.435 34.4605 141.336 34.4605C140.238 34.4605 139.578 35.206 139.578 36.3463V54.5034C139.578 55.6434 140.238 56.3892 141.336 56.3892C142.435 56.3892 143.095 55.6434 143.095 54.5034V46.9598C143.095 40.9075 145.38 37.5305 148.984 37.5305C149.688 37.5305 150.347 37.7497 150.787 37.9252C151.93 38.1445 152.677 37.662 152.897 36.6533C153.117 35.6008 152.633 34.8552 151.534 34.592Z" fill="#1C565A"/>
<path d="M177.867 43.7582C177.867 37.9252 173.603 34.1534 167.801 34.1534C161.648 34.1534 157.077 38.8023 157.077 45.4686C157.077 51.8717 161.384 56.6961 168.548 56.6961C171.318 56.6961 173.955 55.9507 175.406 54.9858C176.461 54.2839 176.68 53.4507 176.109 52.5297C175.538 51.5649 174.659 51.521 173.603 52.0473C172.372 52.7049 170.526 53.4068 168.373 53.4068C164.065 53.4068 161.34 50.6439 160.769 46.8721H174.834C176.724 46.8721 177.867 45.6879 177.867 43.7582ZM160.813 43.7143C161.472 40.0303 164.153 37.4428 167.801 37.4428C171.493 37.4428 174.439 39.9865 174.439 43.7143H160.813Z" fill="#1C565A"/>
<path d="M196.048 34.1535C191.609 34.1535 189.323 36.6972 188.532 38.1006H188.268V27.531C188.268 26.3908 187.609 25.6013 186.51 25.6013C185.412 25.6013 184.752 26.3908 184.752 27.531V46.5651C184.752 52.0912 188.664 56.6961 195.565 56.6961C202.993 56.6961 206.773 51.4771 206.773 45.3371C206.773 38.7146 202.114 34.1535 196.048 34.1535ZM195.697 53.3629C191.125 53.3629 188.312 50.4244 188.312 45.6002V45.2932C188.312 40.6443 191.082 37.4428 195.521 37.4428C200.048 37.4428 203.213 40.6882 203.213 45.4248C203.213 49.1966 201.103 53.3629 195.697 53.3629Z" fill="#1C565A"/>
<path d="M224.412 34.1534C217.291 34.1534 212.895 39.0655 212.895 45.6879C212.895 51.8717 217.643 56.6961 223.84 56.6961C228.499 56.6961 230.477 54.1961 231.18 52.9244H231.4V54.4595C231.4 55.6434 232.103 56.3892 233.202 56.3892C234.301 56.3892 234.96 55.6434 234.96 54.4595V44.109C234.96 37.7497 230.038 34.1534 224.412 34.1534ZM224.236 53.3629C219.489 53.3629 216.5 50.1175 216.5 45.4686C216.5 41.1706 219.181 37.4866 224.412 37.4866C228.763 37.4866 231.4 40.0742 231.4 44.5915V45.2932C231.4 50.4244 228.719 53.3629 224.236 53.3629Z" fill="#1C565A"/>
<path d="M246.357 40.1619C246.357 38.2322 248.072 37.3551 250.269 37.3551C252.599 37.3551 254.093 38.3199 255.192 39.2409C255.808 39.8111 256.555 40.1619 257.566 39.1532C258.577 38.1445 258.137 37.3551 257.61 36.7849C256.071 35.0306 253.346 34.1534 250.665 34.1534C246.401 34.1534 242.929 36.3025 242.929 40.5566C242.929 44.0213 245.302 45.3809 249.478 46.5212C253.962 47.6615 255.544 48.3632 255.544 50.2931C255.544 52.3541 253.654 53.4946 250.973 53.4946C247.852 53.4946 246.181 52.0912 245.038 50.9068C244.511 50.4244 243.676 50.0297 242.665 50.9068C241.874 51.6088 241.742 52.4419 242.577 53.4068C243.896 55.1171 246.885 56.6961 250.841 56.6961C255.588 56.6961 259.016 54.4595 259.016 50.0736C259.016 45.5125 255.368 44.5476 251.588 43.6266C247.544 42.574 246.357 41.7846 246.357 40.1619Z" fill="#1C565A"/>
<path d="M285.771 43.7582C285.771 37.9252 281.507 34.1534 275.705 34.1534C269.551 34.1534 264.98 38.8023 264.98 45.4686C264.98 51.8717 269.287 56.6961 276.452 56.6961C279.221 56.6961 281.859 55.9507 283.309 54.9858C284.364 54.2839 284.584 53.4507 284.012 52.5297C283.441 51.5649 282.562 51.521 281.507 52.0473C280.276 52.7049 278.43 53.4068 276.276 53.4068C271.969 53.4068 269.243 50.6439 268.672 46.8721H282.738C284.628 46.8721 285.771 45.6879 285.771 43.7582ZM268.716 43.7143C269.375 40.0303 272.057 37.4428 275.705 37.4428C279.397 37.4428 282.342 39.9865 282.342 43.7143H268.716Z" fill="#1C565A"/>
<path opacity="0.5" d="M29.6428 70.6171C31.653 70.0795 32.8459 68.018 32.3072 66.0122C31.7686 64.0063 29.7024 62.8161 27.6923 63.3536C25.6822 63.8912 24.4893 65.9527 25.0279 67.9585C25.5665 69.9639 27.6327 71.1541 29.6428 70.6171Z" fill="#259FA4"/>
<path opacity="0.5" d="M62.3998 61.859C64.4096 61.3215 65.603 59.26 65.0643 57.2542C64.5255 55.2488 62.4595 54.0581 60.4492 54.5956C58.4393 55.1332 57.2464 57.1946 57.7847 59.2005C58.3235 61.2059 60.3895 62.3961 62.3998 61.859Z" fill="#259FA4"/>
<path opacity="0.5" d="M15.482 59.3898C17.4922 58.8522 18.6851 56.7907 18.1465 54.7849C17.6079 52.779 15.5417 51.5888 13.5316 52.1264C11.5214 52.6639 10.3285 54.7254 10.8671 56.7312C11.4057 58.7366 13.4719 59.9268 15.482 59.3898Z" fill="#259FA4"/>
<path opacity="0.5" d="M10.7452 41.7503C12.7553 41.2129 13.9482 39.1513 13.4096 37.1456C12.871 35.1399 10.8048 33.9497 8.79469 34.4871C6.78452 35.0245 5.59163 37.0861 6.13024 39.0918C6.66885 41.0975 8.73504 42.2877 10.7452 41.7503Z" fill="#259FA4"/>
<path opacity="0.5" d="M64.3006 27.4319C66.3105 26.8945 67.5038 24.8329 66.9651 22.8272C66.4263 20.8215 64.3603 19.6313 62.35 20.1687C60.3401 20.7061 59.1473 22.7677 59.6855 24.7734C60.2243 26.7791 62.2903 27.9693 64.3006 27.4319Z" fill="#259FA4"/>
<path opacity="0.5" d="M17.3824 24.9623C19.3926 24.4249 20.5855 22.3634 20.0469 20.3576C19.5083 18.352 17.4421 17.1617 15.432 17.6991C13.4218 18.2366 12.2289 20.2981 12.7675 22.3038C13.3061 24.3095 15.3723 25.4998 17.3824 24.9623Z" fill="#259FA4"/>
<path opacity="0.5" d="M50.1395 16.2046C52.1493 15.6671 53.3427 13.6056 52.8039 11.5999C52.2652 9.5942 50.1991 8.40391 48.1889 8.94137C46.1787 9.47879 44.9859 11.5404 45.5245 13.5461C46.0631 15.5517 48.1293 16.742 50.1395 16.2046Z" fill="#259FA4"/>
<path opacity="0.5" d="M32.6277 15.326C34.6378 14.7886 35.8307 12.727 35.2921 10.7213C34.7535 8.71559 32.6873 7.52534 30.6772 8.06276C28.667 8.60017 27.4741 10.6618 28.0128 12.6674C28.5514 14.6731 30.6176 15.8634 32.6277 15.326Z" fill="#259FA4"/>
<path opacity="0.5" d="M47.6745 71.3561C49.6848 70.8185 50.8777 68.7571 50.3389 66.7512C49.8002 64.7459 47.7341 63.5551 45.724 64.0927C43.7138 64.6303 42.521 66.6917 43.0596 68.6976C43.5982 70.7029 45.6644 71.8932 47.6745 71.3561Z" fill="#259FA4"/>
<path d="M29.9557 27.4242C31.7877 26.9344 32.8749 25.0555 32.384 23.2275C31.8931 21.3996 30.01 20.3148 28.178 20.8046C26.346 21.2944 25.2588 23.1733 25.7497 25.0013C26.2406 26.8293 28.1237 27.914 29.9557 27.4242Z" fill="#28989C"/>
<path d="M41.329 24.3836C43.161 23.8938 44.2482 22.0149 43.7573 20.1869C43.2664 18.3589 41.3834 17.2742 39.5513 17.764C37.7193 18.2538 36.6321 20.1327 37.123 21.9606C37.6139 23.7886 39.497 24.8734 41.329 24.3836Z" fill="#28989C"/>
<path d="M22.7297 36.451C24.5617 35.9612 25.6489 34.0823 25.158 32.2543C24.6671 30.4264 22.7841 29.3416 20.952 29.8313C19.12 30.3211 18.0328 32.2001 18.5237 34.028C19.0146 35.856 20.8977 36.9408 22.7297 36.451Z" fill="#28989C"/>
<path d="M28.3167 57.2551C30.1487 56.7653 31.2359 54.8863 30.745 53.0585C30.2541 51.2307 28.371 50.1458 26.539 50.6356C24.707 51.1253 23.6198 53.0044 24.1107 54.8322C24.6016 56.66 26.4846 57.7449 28.3167 57.2551Z" fill="#28989C"/>
<path d="M22.206 47.7401C24.038 47.2503 25.1252 45.3713 24.6343 43.5434C24.1434 41.7154 22.2603 40.6306 20.4283 41.1204C18.5962 41.6102 17.5091 43.4891 18 45.3171C18.4908 47.1451 20.3739 48.2298 22.206 47.7401Z" fill="#28989C"/>
<path d="M39.098 61.4678C40.9301 60.9781 42.0173 59.099 41.5264 57.2712C41.0355 55.4434 39.1524 54.3585 37.3204 54.8483C35.4883 55.3381 34.4011 57.2171 34.892 59.0449C35.3829 60.8727 37.266 61.9576 39.098 61.4678Z" fill="#28989C"/>
<path d="M50.4709 58.4269C52.3028 57.9371 53.3901 56.0581 52.8992 54.2303C52.4084 52.4025 50.5252 51.3176 48.6933 51.8073C46.8613 52.2971 45.7741 54.1761 46.265 56.0039C46.7559 57.8317 48.639 58.9166 50.4709 58.4269Z" fill="#28989C"/>
<path d="M51.4643 28.823C53.2962 28.3332 54.3835 26.4543 53.8926 24.6263C53.4018 22.7983 51.5186 21.7136 49.6867 22.2034C47.8547 22.6932 46.7675 24.5721 47.2584 26.4C47.7493 28.228 49.6325 29.3128 51.4643 28.823Z" fill="#28989C"/>
<path d="M40.6076 46.3357C44.2716 45.3561 46.4461 41.5982 45.4643 37.9423C44.4825 34.2864 40.7163 32.1169 37.0523 33.0965C33.3882 34.076 31.2139 37.8339 32.1956 41.4898C33.1774 45.1457 36.9436 47.3153 40.6076 46.3357Z" fill="#28989C"/>
</svg>
