<svg width="96" height="96" viewBox="0 0 96 96" fill="none" xmlns="http://www.w3.org/2000/svg">
<g clip-path="url(#clip0_36_20531)">
<path d="M48 0C38.5065 0 29.2262 2.81515 21.3326 8.08946C13.4391 13.3638 7.28679 20.8603 3.65378 29.6312C0.0207748 38.402 -0.929785 48.0532 0.922305 57.3643C2.7744 66.6754 7.34595 75.2282 14.0589 81.9411C20.7718 88.654 29.3246 93.2256 38.6357 95.0777C47.9468 96.9298 57.598 95.9792 66.3688 92.3462C75.1397 88.7132 82.6362 82.5609 87.9105 74.6674C93.1848 66.7738 96 57.4935 96 48C95.9865 35.2738 90.925 23.0727 81.9262 14.0738C72.9273 5.07503 60.7262 0.013553 48 0V0ZM48 84C40.8799 84 33.9196 81.8886 27.9995 77.9329C22.0793 73.9772 17.4651 68.3547 14.7403 61.7766C12.0156 55.1985 11.3027 47.9601 12.6917 40.9767C14.0808 33.9934 17.5095 27.5788 22.5442 22.5442C27.5788 17.5095 33.9934 14.0808 40.9767 12.6917C47.9601 11.3027 55.1985 12.0156 61.7766 14.7403C68.3547 17.4651 73.9772 22.0793 77.9329 27.9995C81.8886 33.9196 84 40.8799 84 48C83.9896 57.5446 80.1934 66.6953 73.4444 73.4444C66.6953 80.1934 57.5446 83.9896 48 84Z" fill="#A91F1D"/>
<path d="M64.2422 31.7578C63.6852 31.2005 63.0239 30.7585 62.296 30.4568C61.5681 30.1552 60.7879 30 60 30C59.2121 30 58.4319 30.1552 57.704 30.4568C56.9761 30.7585 56.3148 31.2005 55.7578 31.7578L48 39.5156L40.2422 31.7578C39.116 30.6379 37.5917 30.0102 36.0035 30.0124C34.4152 30.0146 32.8926 30.6465 31.7696 31.7696C30.6465 32.8926 30.0146 34.4152 30.0124 36.0034C30.0102 37.5917 30.6379 39.116 31.7578 40.2422L39.5156 48L31.7578 55.7578C31.1982 56.3143 30.7538 56.9758 30.4503 57.7044C30.1467 58.4329 29.9899 59.2142 29.9888 60.0034C29.9877 60.7927 30.1423 61.5744 30.4439 62.3038C30.7454 63.0332 31.1879 63.6959 31.746 64.254C32.3041 64.8121 32.9668 65.2546 33.6962 65.5561C34.4256 65.8576 35.2073 66.0123 35.9965 66.0112C36.7858 66.0101 37.5671 65.8533 38.2956 65.5497C39.0242 65.2462 39.6857 64.8018 40.2422 64.2422L48 56.4844L55.7578 64.2422C56.884 65.3621 58.4083 65.9898 59.9965 65.9876C61.5848 65.9854 63.1074 65.3535 64.2304 64.2304C65.3535 63.1073 65.9854 61.5848 65.9876 59.9965C65.9898 58.4083 65.3621 56.884 64.2422 55.7578L56.4844 48L64.2422 40.2422C64.7995 39.6852 65.2415 39.0239 65.5431 38.296C65.8448 37.5681 66 36.7879 66 36C66 35.2121 65.8448 34.4319 65.5431 33.704C65.2415 32.9761 64.7995 32.3148 64.2422 31.7578Z" fill="#A91F1D"/>
</g>
<defs>
<clipPath id="clip0_36_20531">
<rect width="96" height="96" fill="white"/>
</clipPath>
</defs>
</svg>
