<svg width="96" height="96" viewBox="0 0 96 96" fill="none" xmlns="http://www.w3.org/2000/svg">
<g clip-path="url(#clip0_36_20505)">
<path d="M58.3945 32.1563L42.9961 50.625L37.6055 44.1621C37.1015 43.5573 36.4833 43.0577 35.7862 42.6918C35.0891 42.3259 34.3268 42.1009 33.5428 42.0296C32.7587 41.9584 31.9683 42.0422 31.2167 42.2764C30.4651 42.5106 29.7669 42.8905 29.1621 43.3945C28.5573 43.8985 28.0577 44.5167 27.6918 45.2138C27.3259 45.9109 27.1009 46.6732 27.0296 47.4573C26.9583 48.2413 27.0422 49.0317 27.2764 49.7833C27.5106 50.535 27.8905 51.2331 28.3945 51.8379L38.3906 63.8379C38.9524 64.514 39.6561 65.0582 40.4518 65.4318C41.2475 65.8055 42.1157 65.9994 42.9947 66C43.8738 66.0006 44.7422 65.8077 45.5383 65.4351C46.3345 65.0624 47.0389 64.5192 47.6016 63.8438L67.6055 39.8438C68.1139 39.2395 68.498 38.5407 68.7357 37.7876C68.9734 37.0344 69.0601 36.2418 68.9907 35.4551C68.9214 34.6684 68.6973 33.9031 68.3315 33.2032C67.9657 32.5033 67.4652 31.8825 66.8589 31.3764C66.2526 30.8704 65.5523 30.489 64.7982 30.2543C64.0442 30.0195 63.2512 29.936 62.4647 30.0085C61.6783 30.0809 60.9139 30.308 60.2154 30.6765C59.517 31.0451 58.8982 31.548 58.3945 32.1563Z" fill="#1BC47D"/>
<path d="M48 0C38.5065 0 29.2262 2.81515 21.3326 8.08946C13.4391 13.3638 7.28679 20.8603 3.65378 29.6312C0.0207748 38.402 -0.929785 48.0532 0.922305 57.3643C2.7744 66.6754 7.34595 75.2282 14.0589 81.9411C20.7718 88.654 29.3246 93.2256 38.6357 95.0777C47.9468 96.9298 57.598 95.9792 66.3688 92.3462C75.1397 88.7132 82.6362 82.5609 87.9105 74.6674C93.1848 66.7738 96 57.4935 96 48C95.9865 35.2738 90.925 23.0727 81.9262 14.0738C72.9273 5.07503 60.7262 0.013553 48 0V0ZM48 84C40.8799 84 33.9196 81.8886 27.9995 77.9329C22.0793 73.9772 17.4651 68.3547 14.7403 61.7766C12.0156 55.1985 11.3027 47.9601 12.6917 40.9767C14.0808 33.9934 17.5095 27.5788 22.5442 22.5442C27.5788 17.5095 33.9934 14.0808 40.9767 12.6917C47.9601 11.3027 55.1985 12.0156 61.7766 14.7403C68.3547 17.4651 73.9772 22.0793 77.9329 27.9995C81.8886 33.9196 84 40.8799 84 48C83.9896 57.5446 80.1934 66.6953 73.4444 73.4444C66.6953 80.1934 57.5446 83.9896 48 84Z" fill="#1BC47D"/>
</g>
<defs>
<clipPath id="clip0_36_20505">
<rect width="96" height="96" fill="white"/>
</clipPath>
</defs>
</svg>
